# xmcd
#
# Track frame offsets:
#	150
#	21881
#	32627
#	48492
#	66849
#	80799
#	93591
#	110124
#	130235
#	149936
#	167377
#	187968
#	207812
#	222152
#
# Disc length: 3211 seconds
#
# Revision: 1
# Processed by: cddbd v1.5.2PL0 Copyright (c) Steve Scherf et al.
# Submitted via: audiograbber 1.83.01
#
DISCID=d10c890e
DTITLE=Dapper Dan Men - Chuck Old Hen
DYEAR=2012
DGENRE=Bluegrass
TTITLE0=Darling Corey
TTITLE1=Banjolina
TTITLE2=Steady  As The Rain
TTITLE3=Falling Slowly
TTITLE4=Chuck Old Hen
TTITLE5=Hey Little Darling
TTITLE6=Summerwine
TTITLE7=Cindy
TTITLE8=Resophonic Heartland
TTITLE9=Moonshine Man
TTITLE10=Angeline The Baker
TTITLE11=You Might Have Heard
TTITLE12=Train Train
TTITLE13=Waiting For A Train
EXTD=
EXTT0=
EXTT1=
EXTT2=
EXTT3=
EXTT4=
EXTT5=
EXTT6=
EXTT7=
EXTT8=
EXTT9=
EXTT10=
EXTT11=
EXTT12=
EXTT13=
PLAYORDER=
